# xmcd
#
# Track frame offsets:
#	150
#	15442
#	33147
#	51405
#	65707
#	80770
#	93707
#	108220
#	126780
#	140192
#	152497
#
# Disc length: 2203 seconds
#
# Revision: 0
# Processed by: cddbd v1.4PL0 Copyright (c) Steve Scherf et al.
# Submitted via: EasyCDDAExtractor 5.0.0.0
#
DISCID=9308990b
DTITLE=The Best Of The West - Country Single - Volume 2
DYEAR=1991
DGENRE=Country
TTITLE0=Born Country - By Ian Eaton and Battle River
TTITLE1=He Used To Be A Rolling Stone - BY Nadine
TTITLE2=One More Cchance - By The Myrol Brothers
TTITLE3=Papa Gave Me My First Guitar - By Lorrie Ann Church
TTITLE4=With Any Luck At All (I'll Lose My Mind) - By Dan Schira
TTITLE5=I'm Wearing Blue Jeans Again - By Lorrie Nelson
TTITLE6=Old Flame Flickering In Your Eyes - By Nigel Stone
TTITLE7=Feeling Like A Fool - By The Red Hot Burritos
TTITLE8=Honky Tonk Heartache And Hillbilly Blues - By Lonnie Harden
TTITLE9=Honey I'm Home - By Girls Nite Out
TTITLE10=Think About What You're Doing - By C Sharp
EXTD=
EXTT0=
EXTT1=
EXTT2=
EXTT3=
EXTT4=
EXTT5=
EXTT6=
EXTT7=
EXTT8=
EXTT9=
EXTT10=
PLAYORDER=
